<svg version="1.1" id="Layer_1" xmlns="http://www.w3.org/2000/svg" xmlns:xlink="http://www.w3.org/1999/xlink" x="0px" y="0px"
	 width="100%" viewBox="0 0 500 500" enable-background="new 0 0 500 500" xml:space="preserve">
<path fill="#000000" opacity="1.000000" stroke="none" 
	d="
M233.000000,501.000000 
	C155.333359,501.000000 78.166702,501.000000 1.000041,501.000000 
	C1.000028,334.333405 1.000028,167.666779 1.000014,1.000131 
	C167.666565,1.000087 334.333130,1.000087 500.999756,1.000044 
	C500.999847,167.666519 500.999847,334.333038 500.999939,500.999786 
	C411.833344,501.000000 322.666656,501.000000 233.000000,501.000000 
M221.080399,331.091156 
	C221.080399,331.091156 221.148102,331.189514 221.709534,330.835693 
	C222.291595,329.902618 222.873657,328.969513 223.998398,327.799011 
	C224.264908,327.295624 224.531403,326.792267 225.273224,325.908783 
	C226.160507,324.265778 227.047791,322.622742 228.420944,320.577087 
	C229.005020,319.232666 229.589111,317.888214 230.757996,316.211487 
	C231.323151,315.525543 231.888290,314.839600 233.061310,313.954559 
	C236.092316,310.454376 239.123337,306.954193 242.716431,303.169708 
	C243.094513,302.446198 243.472580,301.722717 244.351349,300.531189 
	C246.550888,296.594910 248.750443,292.658630 251.187363,288.661865 
	C251.187363,288.661865 251.132919,288.265808 251.690201,287.718658 
	C252.041000,286.753174 252.391800,285.787689 253.099243,284.262177 
	C253.659515,282.840820 254.219772,281.419434 254.997131,279.541534 
	C255.050690,279.381805 255.104263,279.222046 255.769547,278.818481 
	C256.591675,278.178650 257.413788,277.538788 258.114349,277.745453 
	C258.126221,279.163239 258.138092,280.580994 257.999573,282.803314 
	C257.999573,284.637848 257.999573,286.472351 257.999573,288.306885 
	C258.420258,288.457581 258.840973,288.608276 259.261658,288.758972 
	C260.777832,286.816254 262.294037,284.873535 263.993103,282.882416 
	C263.993103,282.882416 263.931366,282.703583 264.174438,282.660156 
	C264.174438,282.660156 264.127594,282.264923 264.721649,281.595490 
	C264.797882,281.307098 264.874146,281.018677 265.190430,280.665192 
	C265.190430,280.665192 265.140076,280.257690 265.683319,279.628632 
	C266.209900,277.785950 266.736511,275.943237 267.675171,273.697418 
	C267.743378,273.131409 267.811584,272.565399 268.313538,271.416626 
	C268.531189,270.234619 268.748871,269.052582 269.197571,267.734344 
	C269.197571,267.734344 269.292603,267.486115 269.292603,267.486115 
	C269.292603,267.486115 269.109314,267.294128 269.456909,266.510712 
	C269.563751,265.673889 269.670593,264.837067 270.003082,263.306671 
	C270.924561,260.869781 271.846069,258.432892 273.313110,255.665222 
	C274.196808,255.139954 275.080475,254.614700 276.058685,254.881561 
	C280.314392,254.383759 284.570068,253.885956 289.549438,253.521500 
	C292.362946,252.782379 295.176422,252.043243 298.501923,251.433105 
	C298.979340,251.227112 299.456726,251.021118 300.778717,250.851028 
	C302.991486,250.249634 305.204254,249.648224 307.436646,249.261261 
	C307.436646,249.261261 307.643555,248.960159 308.365143,248.869629 
	C310.237793,247.895370 312.110443,246.921127 314.569611,245.901962 
	C315.036285,245.574463 315.502960,245.246979 316.719116,244.860840 
	C318.217224,243.970978 319.715302,243.081116 321.414490,242.336349 
	C321.414490,242.336349 321.648315,241.951691 322.343262,241.765701 
	C325.601074,239.279694 328.858887,236.793686 332.787537,234.108643 
	C334.594849,232.452606 336.402161,230.796570 338.106659,229.139740 
	C338.106659,229.139740 338.168762,229.221680 338.821411,228.789246 
	C343.959564,225.087845 341.013977,231.594315 342.805328,232.744949 
	C343.144684,234.151855 343.484070,235.558746 343.732391,237.489868 
	C343.799683,237.653976 343.866943,237.818069 343.710297,238.347855 
	C343.786835,238.904877 343.863342,239.461914 343.840912,240.847504 
	C347.942810,260.441101 345.831696,280.303192 345.228363,300.100098 
	C345.805328,300.109436 346.382324,300.118774 346.959290,300.128113 
	C347.945160,292.081238 348.931030,284.034363 350.416687,275.791626 
	C350.230286,275.202881 350.043884,274.614136 349.876587,273.085510 
	C348.911621,261.058044 347.946655,249.030563 347.366516,236.334915 
	C347.079010,234.855743 346.791504,233.376556 346.475250,231.102066 
	C346.028656,227.662384 345.582092,224.222702 345.338165,220.587296 
	C345.306610,220.349670 345.172272,220.248993 344.737030,219.608490 
	C343.527313,217.724411 342.317596,215.840332 341.122986,213.065323 
	C340.784149,211.943207 340.445282,210.821091 340.296570,209.516571 
	C340.269348,209.309906 340.152191,209.193634 339.994049,209.081940 
	C339.994049,209.081940 339.904724,209.039764 339.910095,208.260498 
	C338.061340,202.802216 336.572723,197.187607 334.285767,191.919556 
	C330.061096,182.187988 325.368469,172.659561 320.272614,162.578705 
	C314.512573,146.872787 304.247406,133.975967 294.423065,120.671921 
	C294.423065,120.671921 294.267456,120.458809 294.267456,120.458809 
	C294.267456,120.458809 294.005066,120.488716 293.719269,119.960922 
	C293.260071,119.584465 292.800903,119.208000 291.971588,118.250679 
	C287.622131,114.831718 285.683441,108.547516 279.630402,107.269119 
	C283.346313,111.654823 287.062225,116.040527 291.036194,121.042885 
	C294.050537,125.397041 297.287231,129.616013 300.033661,134.133072 
	C306.020599,143.979980 311.757965,153.978638 317.140839,164.316742 
	C317.418701,164.564865 317.696564,164.813004 318.131348,165.755600 
	C324.056183,181.183456 329.981018,196.611298 335.917480,212.871841 
	C335.627960,214.992645 335.338440,217.113449 334.802124,219.316223 
	C334.802124,219.316223 334.691315,219.548645 334.691315,219.548645 
	C334.691315,219.548645 334.871582,219.731903 334.358337,220.376328 
	C333.922211,221.666122 333.486115,222.955917 332.799164,224.327698 
	C332.799164,224.327698 332.677979,224.559509 332.677979,224.559509 
	C332.677979,224.559509 332.826569,224.774399 332.257996,225.335159 
	C329.720459,231.452942 323.277679,230.572098 318.520386,232.731964 
	C318.520386,232.731964 318.229614,233.048706 317.441193,233.074295 
	C309.950470,236.021744 302.459778,238.969177 294.242126,241.921570 
	C292.501740,242.632599 290.761322,243.343613 288.250824,244.051819 
	C287.027374,244.398727 285.803955,244.745636 284.526184,244.806961 
	C284.219147,244.629593 283.958527,244.661835 283.151062,244.567154 
	C282.481567,244.581375 281.812042,244.595596 280.507202,244.291092 
	C279.335693,244.369080 278.164185,244.447067 276.239319,244.352600 
	C275.496735,244.533829 274.754150,244.715042 273.344513,244.792816 
	C270.586823,245.927399 267.829132,247.061981 264.372864,248.318375 
	C261.581543,249.494034 258.790222,250.669693 255.188248,251.848175 
	C254.040329,251.596909 252.892426,251.345642 251.965256,250.494797 
	C251.964584,250.281830 251.963913,250.068848 252.211777,249.727081 
	C252.211777,249.727081 252.320801,249.471802 252.320801,249.471802 
	C252.320801,249.471802 252.116669,249.284271 252.519165,248.532425 
	C252.572418,247.689499 252.625671,246.846588 252.897263,245.174515 
	C253.603516,243.482712 254.309784,241.790924 255.528061,240.690857 
	C255.776672,240.769730 256.025299,240.848618 256.578339,241.343140 
	C257.045197,241.518951 257.512085,241.694778 258.352783,242.267242 
	C258.534363,242.271820 258.715973,242.276398 259.480011,242.733948 
	C261.231598,242.161545 262.983154,241.589157 264.734741,241.016769 
	C263.419647,237.445145 265.663361,233.320465 262.942383,229.121658 
	C262.422852,226.701370 261.903320,224.281067 261.138885,221.252228 
	C260.453918,220.759338 259.768951,220.266449 258.532928,219.284103 
	C256.024353,218.995148 253.515793,218.706207 250.368698,218.257278 
	C249.148621,218.607559 247.928528,218.957855 245.978210,219.378510 
	C244.371170,222.251877 242.764145,225.125259 241.018967,228.773849 
	C241.432434,230.529724 242.116714,232.277451 242.169830,234.044144 
	C242.209091,235.351166 241.426666,236.682861 240.195953,238.020142 
	C236.474930,238.650314 232.753891,239.280487 228.478760,239.689270 
	C227.301620,239.750549 226.124496,239.811829 224.171005,239.587204 
	C220.107925,239.409790 216.044861,239.232376 211.519470,238.514038 
	C209.694077,238.714706 207.868668,238.915375 205.165817,239.032059 
	C200.459351,240.075150 195.752899,241.118225 190.458771,242.384781 
	C188.192032,245.787613 190.677536,247.347183 193.308731,249.596695 
	C201.301666,255.325867 209.965240,259.124207 220.570770,259.287537 
	C224.519318,259.786774 221.985229,256.117065 223.511734,255.050430 
	C223.511734,255.050430 223.691986,255.025757 224.247589,255.303940 
	C224.848618,255.827637 225.449646,256.351318 226.274216,257.376282 
	C226.891479,257.747894 227.508743,258.119507 228.619858,258.977814 
	C231.717148,261.730347 234.814423,264.482849 238.230347,267.735931 
	C238.801941,268.484741 239.373535,269.233551 239.453751,270.090302 
	C239.292664,270.370483 239.131577,270.650635 238.243622,271.000305 
	C237.513504,270.993744 236.783401,270.987213 235.721344,270.404968 
	C234.121796,269.741821 232.522247,269.078674 230.704239,268.233978 
	C230.704239,268.233978 230.420227,268.236267 229.960983,267.749359 
	C226.882355,266.629944 223.803726,265.510498 219.622787,263.990265 
	C221.334366,267.253265 222.317261,269.127075 223.337570,271.649414 
	C223.709564,272.429962 224.081573,273.210480 224.433594,274.650879 
	C224.868134,275.654327 225.302673,276.657776 225.660049,278.512543 
	C227.122894,287.832123 226.267151,296.414062 217.795547,302.521576 
	C217.795547,302.521576 217.858429,302.759857 217.150131,303.056580 
	C215.127701,305.494293 213.105270,307.932007 210.628769,310.750671 
	C210.140259,311.834106 209.651749,312.917572 208.654236,314.493378 
	C205.103012,320.995636 201.551788,327.497894 197.452164,334.291229 
	C196.935883,335.182343 196.419586,336.073456 195.257614,337.197540 
	C192.820877,341.733582 190.576523,346.387085 187.896622,350.774567 
	C184.840378,355.778137 180.272202,358.475067 174.236343,358.440552 
	C166.906052,358.398590 159.575241,358.448578 152.244644,358.456635 
	C149.359924,358.459808 146.475204,358.457184 142.812683,358.457184 
	C144.848450,353.716797 146.326355,349.880981 148.107742,346.191711 
	C159.368332,322.870880 170.519821,299.494110 182.122894,276.344116 
	C185.112289,270.379791 185.489548,264.853455 183.856430,258.611115 
	C179.723633,242.814255 185.428864,234.028702 201.356827,230.809540 
	C202.882874,230.501144 204.851883,229.435791 205.495148,228.157974 
	C213.097504,213.056335 220.478775,197.843506 227.935074,182.668213 
	C231.025955,176.377518 234.157242,170.106659 237.799026,162.759888 
	C239.179596,165.474319 239.868652,166.908386 240.625702,168.305618 
	C249.972321,185.555786 254.769104,205.177902 268.594452,220.153458 
	C273.154572,225.092926 277.724762,226.601608 284.357635,225.542343 
	C268.943420,192.587204 253.686676,159.968750 237.986099,126.401382 
	C197.636017,209.378708 157.762863,291.375305 117.389153,374.401245 
	C125.502502,374.401245 132.272980,374.457611 139.042206,374.388916 
	C151.342819,374.264160 163.642487,374.050476 175.942902,373.902100 
	C184.341248,373.800812 191.684601,371.107452 196.908417,364.373749 
	C201.531738,358.414093 205.627594,352.045288 210.538162,345.543427 
	C212.650620,342.683258 214.763092,339.823090 217.367737,336.630890 
	C217.983490,335.638214 218.599258,334.645538 219.784973,333.315979 
	C220.254456,332.587219 220.723923,331.858459 221.080399,331.091156 
M319.347809,345.247711 
	C321.312256,349.401276 323.276733,353.554840 325.372253,357.985504 
	C298.301483,357.985504 271.772614,357.985504 245.600800,357.985504 
	C246.650848,346.729340 247.669312,335.811737 248.687775,324.894165 
	C248.163300,324.756287 247.638824,324.618408 247.114349,324.480499 
	C237.719971,340.745880 228.325592,357.011261 218.539215,373.955322 
	C262.742462,373.955322 305.856018,373.955322 349.120300,373.955322 
	C348.989777,373.088104 349.025299,372.564423 348.831787,372.146973 
	C336.912109,346.432068 324.999512,320.713715 312.955414,295.057159 
	C312.392883,293.858765 310.657532,292.465973 309.439514,292.438385 
	C299.948242,292.223175 290.447998,292.210693 280.954529,292.371613 
	C276.725891,292.443298 274.178772,296.104767 274.285217,301.246460 
	C274.382507,305.945038 276.212280,307.727203 281.008026,307.733459 
	C286.505798,307.740662 292.009155,307.860535 297.499146,307.648438 
	C300.421844,307.535553 301.915314,308.600464 303.148132,311.258881 
	C308.323059,322.417969 313.744629,333.462677 319.347809,345.247711 
z"/>
<path fill="#E9E8E2" opacity="1.000000" stroke="none" 
	d="
M209.956299,345.857086 
	C205.627594,352.045288 201.531738,358.414093 196.908417,364.373749 
	C191.684601,371.107452 184.341248,373.800812 175.942902,373.902100 
	C163.642487,374.050476 151.342819,374.264160 139.042206,374.388916 
	C132.272980,374.457611 125.502502,374.401245 117.389153,374.401245 
	C157.762863,291.375305 197.636017,209.378708 237.986099,126.401382 
	C253.686676,159.968750 268.943420,192.587204 284.357635,225.542343 
	C277.724762,226.601608 273.154572,225.092926 268.594452,220.153458 
	C254.769104,205.177902 249.972321,185.555786 240.625702,168.305618 
	C239.868652,166.908386 239.179596,165.474319 237.799026,162.759888 
	C234.157242,170.106659 231.025955,176.377518 227.935074,182.668213 
	C220.478775,197.843506 213.097504,213.056335 205.495148,228.157974 
	C204.851883,229.435791 202.882874,230.501144 201.356827,230.809540 
	C185.428864,234.028702 179.723633,242.814255 183.856430,258.611115 
	C185.489548,264.853455 185.112289,270.379791 182.122894,276.344116 
	C170.519821,299.494110 159.368332,322.870880 148.107742,346.191711 
	C146.326355,349.880981 144.848450,353.716797 142.812683,358.457184 
	C146.475204,358.457184 149.359924,358.459808 152.244644,358.456635 
	C159.575241,358.448578 166.906052,358.398590 174.236343,358.440552 
	C180.272202,358.475067 184.840378,355.778137 187.896622,350.774567 
	C190.576523,346.387085 192.820877,341.733582 195.907837,337.060852 
	C197.038879,335.949463 197.519730,334.974823 198.000565,334.000153 
	C201.551788,327.497894 205.103012,320.995636 209.230286,314.177856 
	C210.231842,312.698151 210.657349,311.533966 211.082855,310.369751 
	C213.105270,307.932007 215.127701,305.494293 217.513885,302.880371 
	C217.877655,302.704132 217.986099,302.633698 217.986099,302.633698 
	C226.267151,296.414062 227.122894,287.832123 225.827576,277.753815 
	C225.481247,275.993744 224.967407,274.992371 224.453583,273.991028 
	C224.081573,273.210480 223.709564,272.429962 223.679352,271.255676 
	C226.154160,269.986725 228.287201,269.111481 230.420227,268.236267 
	C230.420227,268.236267 230.704239,268.233978 230.617401,268.645325 
	C231.075211,273.418884 233.975479,271.019348 236.053284,270.980652 
	C236.783401,270.987213 237.513504,270.993744 238.828110,271.230042 
	C240.578445,271.320984 241.744278,271.182159 242.910110,271.043335 
	C242.826630,270.624664 242.743134,270.205963 242.659637,269.787262 
	C241.754807,269.852295 240.849960,269.917328 239.945129,269.982361 
	C239.373535,269.233551 238.801941,268.484741 238.089661,267.105042 
	C236.393921,261.375031 233.013702,258.627960 228.126007,258.491119 
	C227.508743,258.119507 226.891479,257.747894 226.322754,256.840759 
	C228.962738,255.052368 231.554153,253.799469 234.538757,252.503815 
	C236.955750,252.897964 238.979538,253.334869 241.051422,254.123749 
	C242.561417,256.691620 243.874084,256.771698 245.327087,254.055969 
	C244.731842,252.035736 243.811203,250.162643 242.879303,247.954575 
	C242.184433,247.608017 241.500824,247.596436 240.362000,247.596954 
	C234.981354,247.523804 230.055908,247.438522 225.001678,247.099152 
	C224.246674,247.107056 223.620483,247.369049 222.587021,247.743958 
	C220.399094,247.911575 218.598495,247.840836 216.853256,248.118393 
	C216.467590,248.179718 216.277939,249.473526 216.050781,250.529053 
	C216.974701,253.746811 222.209137,254.497482 220.033295,258.878906 
	C209.965240,259.124207 201.301666,255.325867 193.114929,248.925690 
	C192.296249,246.223557 191.671341,244.192429 191.046432,242.161301 
	C195.752899,241.118225 200.459351,240.075150 205.866058,239.319580 
	C208.371460,239.423065 210.176620,239.239029 211.981781,239.054993 
	C216.044861,239.232376 220.107925,239.409790 224.772430,240.003464 
	C226.593521,240.250046 227.813187,240.080368 229.032867,239.910675 
	C232.753891,239.280487 236.474930,238.650314 240.975555,238.006927 
	C243.007172,236.690079 245.377762,235.291443 245.276825,234.102692 
	C245.070816,231.676987 245.907257,227.665939 241.157104,227.998642 
	C242.764145,225.125259 244.371170,222.251877 246.501892,219.665436 
	C249.257828,221.788101 250.314133,220.573730 251.007233,218.417267 
	C253.515793,218.706207 256.024353,218.995148 258.842194,219.893555 
	C259.895569,220.955597 260.639679,221.408188 261.383789,221.860779 
	C261.903320,224.281067 262.422852,226.701370 262.934998,229.900635 
	C261.584290,234.546738 260.240936,238.413864 258.897614,242.280991 
	C258.715973,242.276398 258.534363,242.271820 258.016113,241.862976 
	C257.210907,241.281647 256.742432,241.104568 256.273926,240.927490 
	C256.025299,240.848618 255.776672,240.769730 255.230911,240.076355 
	C254.219284,239.113190 253.504791,238.764542 252.790283,238.415894 
	C252.753159,240.945145 252.716019,243.474411 252.678894,246.003662 
	C252.625671,246.846588 252.572418,247.689499 252.287994,249.002411 
	C252.056808,249.472397 251.963242,249.855881 251.963242,249.855881 
	C251.963913,250.068848 251.964584,250.281830 251.676239,251.027618 
	C252.847260,252.904861 254.218216,255.691025 255.998886,251.845352 
	C258.790222,250.669693 261.581543,249.494034 264.959595,248.477493 
	C268.567261,247.840668 273.169952,250.624527 274.011566,244.896271 
	C274.754150,244.715042 275.496735,244.533829 276.739319,244.746246 
	C278.540375,244.963196 279.841461,244.786514 281.142548,244.609833 
	C281.812042,244.595596 282.481567,244.581375 283.657013,244.784088 
	C284.162964,245.001038 284.580505,245.092545 284.580505,245.092545 
	C285.803955,244.745636 287.027374,244.398727 288.878754,244.305511 
	C291.327484,243.678329 293.148254,242.797470 294.969055,241.916611 
	C302.459778,238.969177 309.950470,236.021744 317.904541,233.042587 
	C318.367859,233.010880 318.643341,232.932159 318.643341,232.932159 
	C323.277679,230.572098 329.720459,231.452942 332.584351,224.968872 
	C332.910736,224.602585 333.050018,224.245728 333.050018,224.245728 
	C333.486115,222.955917 333.922211,221.666122 334.646362,219.971893 
	C334.934387,219.567459 335.048920,219.234253 335.048920,219.234253 
	C335.338440,217.113449 335.627960,214.992645 336.182129,212.243179 
	C337.599396,210.756256 338.752075,209.898010 339.904724,209.039764 
	C339.904724,209.039764 339.994049,209.081940 339.992676,209.214508 
	C339.991302,209.347076 340.106415,209.698990 340.106415,209.698990 
	C340.445282,210.821091 340.784149,211.943207 340.853577,213.729019 
	C341.979401,219.387970 342.626526,224.248001 338.195740,228.253265 
	C338.030212,228.402878 338.170807,228.891205 338.168762,229.221680 
	C338.168762,229.221680 338.106659,229.139740 337.776978,229.136932 
	C334.585876,229.741150 331.970459,230.601639 332.116730,234.307678 
	C328.858887,236.793686 325.601074,239.279694 321.921509,241.895355 
	C321.499725,242.025024 321.213409,242.191238 321.213409,242.191238 
	C319.715302,243.081116 318.217224,243.970978 316.164490,244.685089 
	C315.067627,244.988510 314.525360,245.467682 313.983093,245.946869 
	C312.110443,246.921127 310.237793,247.895370 307.966919,248.929825 
	C307.568665,248.990021 307.417023,249.046829 307.417023,249.046814 
	C305.204254,249.648224 302.991486,250.249634 300.212311,250.652740 
	C299.093903,250.737686 298.541931,251.020905 297.989929,251.304108 
	C295.176422,252.043243 292.362946,252.782379 288.813293,253.359863 
	C286.809387,253.070557 285.514374,252.714294 284.279358,252.861572 
	C281.500214,253.193054 278.231201,250.385590 275.964142,254.089447 
	C275.080475,254.614700 274.196808,255.139954 272.649597,255.832962 
	C267.384979,257.099823 266.509705,260.269958 269.777435,264.000244 
	C269.670593,264.837067 269.563751,265.673889 269.255127,266.997437 
	C269.053375,267.484131 268.966553,267.870575 268.966553,267.870575 
	C268.748871,269.052582 268.531189,270.234619 267.805237,271.756989 
	C267.285645,272.765076 267.274384,273.432831 267.263123,274.100555 
	C266.736511,275.943237 266.209900,277.785950 265.378113,280.020996 
	C265.072937,280.413330 264.950439,280.730225 264.950439,280.730225 
	C264.874146,281.018677 264.797882,281.307098 264.392639,282.003479 
	C264.063599,282.411469 263.931366,282.703583 263.931366,282.703583 
	C263.931366,282.703583 263.993103,282.882416 263.539337,282.917175 
	C261.440369,282.634216 259.795166,282.316498 258.149963,281.998779 
	C258.138092,280.580994 258.126221,279.163239 258.389954,277.071625 
	C257.682159,275.693878 256.698792,274.989960 255.715393,274.286041 
	C255.529541,275.878113 255.343689,277.470184 255.157837,279.062256 
	C255.104263,279.222046 255.050690,279.381805 254.531952,279.863281 
	C253.625381,281.730743 253.184006,283.276489 252.742615,284.822205 
	C252.391800,285.787689 252.041000,286.753174 251.380035,288.067688 
	C251.069855,288.416718 250.949982,288.722351 250.949982,288.722351 
	C248.750443,292.658630 246.550888,296.594910 243.766724,300.845276 
	C242.839523,301.924255 242.496918,302.689148 242.154327,303.454010 
	C239.123337,306.954193 236.092316,310.454376 232.361145,314.068176 
	C231.165054,314.969086 230.669113,315.756439 230.173187,316.543762 
	C229.589111,317.888214 229.005020,319.232666 227.813248,320.790710 
	C225.525665,321.840149 223.845764,322.675995 221.473160,323.856506 
	C223.071030,325.025513 223.934479,325.657196 224.797913,326.288879 
	C224.531403,326.792267 224.264908,327.295624 223.334503,327.949158 
	C222.163116,329.129364 221.655609,330.159424 221.148102,331.189514 
	C221.148102,331.189514 221.080399,331.091156 220.754990,331.146057 
	C220.024734,332.018250 219.619888,332.835571 219.215027,333.652863 
	C218.599258,334.645538 217.983490,335.638214 216.757965,336.818329 
	C214.084229,339.956207 212.020264,342.906647 209.956299,345.857086 
M279.656586,249.356522 
	C279.703369,249.675491 279.750183,249.994446 279.796997,250.313416 
	C279.886505,249.974960 279.976044,249.636505 279.656586,249.356522 
M257.280090,271.829437 
	C257.385498,271.974915 257.490906,272.120361 257.596344,272.265808 
	C257.576050,272.065338 257.555725,271.864868 257.280090,271.829437 
z"/>
<path fill="#E6E7E0" opacity="1.000000" stroke="none" 
	d="
M319.211853,344.898468 
	C313.744629,333.462677 308.323059,322.417969 303.148132,311.258881 
	C301.915314,308.600464 300.421844,307.535553 297.499146,307.648438 
	C292.009155,307.860535 286.505798,307.740662 281.008026,307.733459 
	C276.212280,307.727203 274.382507,305.945038 274.285217,301.246460 
	C274.178772,296.104767 276.725891,292.443298 280.954529,292.371613 
	C290.447998,292.210693 299.948242,292.223175 309.439514,292.438385 
	C310.657532,292.465973 312.392883,293.858765 312.955414,295.057159 
	C324.999512,320.713715 336.912109,346.432068 348.831787,372.146973 
	C349.025299,372.564423 348.989777,373.088104 349.120300,373.955322 
	C305.856018,373.955322 262.742462,373.955322 218.539215,373.955322 
	C228.325592,357.011261 237.719971,340.745880 247.114349,324.480499 
	C247.638824,324.618408 248.163300,324.756287 248.687775,324.894165 
	C247.669312,335.811737 246.650848,346.729340 245.600800,357.985504 
	C271.772614,357.985504 298.301483,357.985504 325.372253,357.985504 
	C323.276733,353.554840 321.312256,349.401276 319.211853,344.898468 
z"/>
<path fill="#E7E8E1" opacity="1.000000" stroke="none" 
	d="
M339.907410,208.650131 
	C338.752075,209.898010 337.599396,210.756256 336.176300,211.826843 
	C329.981018,196.611298 324.056183,181.183456 318.047241,165.118347 
	C317.928772,164.290787 317.894409,164.100479 318.114777,163.715820 
	C319.203278,163.363159 320.037018,163.204834 320.870789,163.046509 
	C325.368469,172.659561 330.061096,182.187988 334.285767,191.919556 
	C336.572723,197.187607 338.061340,202.802216 339.907410,208.650131 
z"/>
<path fill="#D9DDD9" opacity="1.000000" stroke="none" 
	d="
M320.571716,162.812607 
	C320.037018,163.204834 319.203278,163.363159 318.049652,163.722275 
	C317.729797,163.923065 317.597321,163.915283 317.597321,163.915283 
	C311.757965,153.978638 306.020599,143.979980 300.033661,134.133072 
	C297.287231,129.616013 294.050537,125.397041 291.089783,120.399017 
	C291.542847,119.447281 291.942261,119.139412 292.341705,118.831543 
	C292.800903,119.208000 293.260071,119.584465 293.858215,120.318863 
	C293.997192,120.676796 294.280457,120.893204 294.280457,120.893204 
	C304.247406,133.975967 314.512573,146.872787 320.571716,162.812607 
z"/>
<path fill="#F2F5F0" opacity="1.000000" stroke="none" 
	d="
M349.916870,275.987488 
	C348.931030,284.034363 347.945160,292.081238 346.959290,300.128113 
	C346.382324,300.118774 345.805328,300.109436 345.228363,300.100098 
	C345.831696,280.303192 347.942810,260.441101 344.110657,240.281601 
	C344.231689,239.137863 344.082947,238.560028 343.934235,237.982178 
	C343.866943,237.818069 343.799683,237.653976 344.172760,237.213333 
	C345.402649,236.958893 346.192139,236.980988 346.981659,237.003082 
	C347.946655,249.030563 348.911621,261.058044 349.655029,273.697021 
	C349.594604,274.868195 349.755737,275.427856 349.916870,275.987488 
z"/>
<path fill="#0E0F0E" opacity="1.000000" stroke="none" 
	d="
M242.890564,248.289551 
	C243.811203,250.162643 244.731842,252.035736 244.934662,253.921753 
	C243.145676,253.880356 242.074509,253.826065 241.003342,253.771759 
	C238.979538,253.334869 236.955750,252.897964 234.164581,252.355774 
	C230.780121,252.260208 228.137863,252.074188 225.562073,252.405197 
	C224.838409,252.498215 224.309982,254.110397 223.691986,255.025757 
	C223.691986,255.025757 223.511734,255.050430 223.142502,254.813919 
	C220.514862,253.118210 218.256439,251.658997 215.998032,250.199799 
	C216.277939,249.473526 216.467590,248.179718 216.853256,248.118393 
	C218.598495,247.840836 220.399094,247.911575 222.861053,247.812180 
	C224.071732,247.629395 224.601105,247.491333 225.130478,247.353241 
	C230.055908,247.438522 234.981354,247.523804 240.597137,247.745026 
	C241.821838,248.017151 242.356201,248.153351 242.890564,248.289551 
z"/>
<path fill="#E7E8E1" opacity="1.000000" stroke="none" 
	d="
M338.495087,229.005463 
	C338.170807,228.891205 338.030212,228.402878 338.195740,228.253265 
	C342.626526,224.248001 341.979401,219.387970 340.846008,214.174469 
	C342.317596,215.840332 343.527313,217.724411 344.826782,220.043152 
	C344.916565,220.477814 345.135498,220.783020 345.135498,220.783020 
	C345.582092,224.222702 346.028656,227.662384 346.038574,231.530884 
	C344.698090,231.976990 343.794281,231.994293 342.890503,232.011597 
	C341.013977,231.594315 343.959564,225.087845 338.495087,229.005463 
z"/>
<path fill="#C4CCC9" opacity="1.000000" stroke="none" 
	d="
M292.156647,118.541107 
	C291.942261,119.139412 291.542847,119.447281 290.960754,120.090691 
	C287.062225,116.040527 283.346313,111.654823 279.630402,107.269119 
	C285.683441,108.547516 287.622131,114.831718 292.156647,118.541107 
z"/>
<path fill="#E7E8E1" opacity="1.000000" stroke="none" 
	d="
M259.188812,242.507477 
	C260.240936,238.413864 261.584290,234.546738 262.971710,230.317764 
	C265.663361,233.320465 263.419647,237.445145 264.734741,241.016769 
	C262.983154,241.589157 261.231598,242.161545 259.188812,242.507477 
z"/>
<path fill="#E7E8E1" opacity="1.000000" stroke="none" 
	d="
M230.190613,267.992798 
	C228.287201,269.111481 226.154160,269.986725 223.660645,270.931396 
	C222.317261,269.127075 221.334366,267.253265 219.622787,263.990265 
	C223.803726,265.510498 226.882355,266.629944 230.190613,267.992798 
z"/>
<path fill="#E7E8E1" opacity="1.000000" stroke="none" 
	d="
M241.088043,228.386246 
	C245.907257,227.665939 245.070816,231.676987 245.276825,234.102692 
	C245.377762,235.291443 243.007172,236.690079 241.382721,237.998642 
	C241.426666,236.682861 242.209091,235.351166 242.169830,234.044144 
	C242.116714,232.277451 241.432434,230.529724 241.088043,228.386246 
z"/>
<path fill="#E7E8E1" opacity="1.000000" stroke="none" 
	d="
M276.011414,254.485504 
	C278.231201,250.385590 281.500214,253.193054 284.279358,252.861572 
	C285.514374,252.714294 286.809387,253.070557 288.451477,253.293198 
	C284.570068,253.885956 280.314392,254.383759 276.011414,254.485504 
z"/>
<path fill="#E7E8E1" opacity="1.000000" stroke="none" 
	d="
M228.372925,258.734467 
	C233.013702,258.627960 236.393921,261.375031 237.930344,266.854797 
	C234.814423,264.482849 231.717148,261.730347 228.372925,258.734467 
z"/>
<path fill="#E7E8E1" opacity="1.000000" stroke="none" 
	d="
M258.074768,282.401062 
	C259.795166,282.316498 261.440369,282.634216 263.447876,282.941376 
	C262.294037,284.873535 260.777832,286.816254 259.261658,288.758972 
	C258.840973,288.608276 258.420258,288.457581 257.999573,288.306885 
	C257.999573,286.472351 257.999573,284.637848 258.074768,282.401062 
z"/>
<path fill="#E7E8E1" opacity="1.000000" stroke="none" 
	d="
M216.050781,250.529053 
	C218.256439,251.658997 220.514862,253.118210 223.064178,254.767685 
	C221.985229,256.117065 224.519318,259.786774 220.302032,259.083221 
	C222.209137,254.497482 216.974701,253.746811 216.050781,250.529053 
z"/>
<path fill="#E7E8E1" opacity="1.000000" stroke="none" 
	d="
M223.969788,255.164856 
	C224.309982,254.110397 224.838409,252.498215 225.562073,252.405197 
	C228.137863,252.074188 230.780121,252.260208 233.771393,252.398529 
	C231.554153,253.799469 228.962738,255.052368 226.210999,256.590149 
	C225.449646,256.351318 224.848618,255.827637 223.969788,255.164856 
z"/>
<path fill="#E7E8E1" opacity="1.000000" stroke="none" 
	d="
M269.890259,263.653442 
	C266.509705,260.269958 267.384979,257.099823 272.376831,255.998352 
	C271.846069,258.432892 270.924561,260.869781 269.890259,263.653442 
z"/>
<path fill="#E7E8E1" opacity="1.000000" stroke="none" 
	d="
M273.678040,244.844543 
	C273.169952,250.624527 268.567261,247.840668 265.308899,248.416580 
	C267.829132,247.061981 270.586823,245.927399 273.678040,244.844543 
z"/>
<path fill="#E7E8E1" opacity="1.000000" stroke="none" 
	d="
M210.247238,345.700256 
	C212.020264,342.906647 214.084229,339.956207 216.511871,336.984344 
	C214.763092,339.823090 212.650620,342.683258 210.247238,345.700256 
z"/>
<path fill="#E7E8E1" opacity="1.000000" stroke="none" 
	d="
M225.035568,326.098816 
	C223.934479,325.657196 223.071030,325.025513 221.473160,323.856506 
	C223.845764,322.675995 225.525665,321.840149 227.570312,320.992004 
	C227.047791,322.622742 226.160507,324.265778 225.035568,326.098816 
z"/>
<path fill="#D5D8D5" opacity="1.000000" stroke="none" 
	d="
M342.847900,232.378265 
	C343.794281,231.994293 344.698090,231.976990 346.052948,231.928528 
	C346.791504,233.376556 347.079010,234.855743 347.174072,236.669006 
	C346.192139,236.980988 345.402649,236.958893 344.218262,236.951233 
	C343.484070,235.558746 343.144684,234.151855 342.847900,232.378265 
z"/>
<path fill="#E7E8E1" opacity="1.000000" stroke="none" 
	d="
M255.463684,278.940369 
	C255.343689,277.470184 255.529541,275.878113 255.715393,274.286041 
	C256.698792,274.989960 257.682159,275.693878 258.450745,276.648376 
	C257.413788,277.538788 256.591675,278.178650 255.463684,278.940369 
z"/>
<path fill="#E7E8E1" opacity="1.000000" stroke="none" 
	d="
M252.788086,245.589081 
	C252.716019,243.474411 252.753159,240.945145 252.790283,238.415894 
	C253.504791,238.764542 254.219284,239.113190 254.974899,239.780487 
	C254.309784,241.790924 253.603516,243.482712 252.788086,245.589081 
z"/>
<path fill="#E7E8E1" opacity="1.000000" stroke="none" 
	d="
M332.452148,234.208160 
	C331.970459,230.601639 334.585876,229.741150 337.828400,229.137329 
	C336.402161,230.796570 334.594849,232.452606 332.452148,234.208160 
z"/>
<path fill="#E7E8E1" opacity="1.000000" stroke="none" 
	d="
M190.752594,242.273041 
	C191.671341,244.192429 192.296249,246.223557 192.966217,248.610153 
	C190.677536,247.347183 188.192032,245.787613 190.752594,242.273041 
z"/>
<path fill="#E7E8E1" opacity="1.000000" stroke="none" 
	d="
M294.605591,241.919098 
	C293.148254,242.797470 291.327484,243.678329 289.263794,244.306915 
	C290.761322,243.343613 292.501740,242.632599 294.605591,241.919098 
z"/>
<path fill="#E7E8E1" opacity="1.000000" stroke="none" 
	d="
M235.887314,270.692810 
	C233.975479,271.019348 231.075211,273.418884 230.726624,268.736084 
	C232.522247,269.078674 234.121796,269.741821 235.887314,270.692810 
z"/>
<path fill="#E7E8E1" opacity="1.000000" stroke="none" 
	d="
M211.750626,238.784515 
	C210.176620,239.239029 208.371460,239.423065 206.304779,239.361572 
	C207.868668,238.915375 209.694077,238.714706 211.750626,238.784515 
z"/>
<path fill="#E7E8E1" opacity="1.000000" stroke="none" 
	d="
M250.687958,218.337265 
	C250.314133,220.573730 249.257828,221.788101 246.867004,219.630249 
	C247.928528,218.957855 249.148621,218.607559 250.687958,218.337265 
z"/>
<path fill="#E7E8E1" opacity="1.000000" stroke="none" 
	d="
M239.699432,270.036316 
	C240.849960,269.917328 241.754807,269.852295 242.659637,269.787262 
	C242.743134,270.205963 242.826630,270.624664 242.910110,271.043335 
	C241.744278,271.182159 240.578445,271.320984 239.191544,271.195312 
	C239.131577,270.650635 239.292664,270.370483 239.699432,270.036316 
z"/>
<path fill="#E7E8E1" opacity="1.000000" stroke="none" 
	d="
M255.593567,251.846771 
	C254.218216,255.691025 252.847260,252.904861 251.565872,251.327393 
	C252.892426,251.345642 254.040329,251.596909 255.593567,251.846771 
z"/>
<path fill="#E7E8E1" opacity="1.000000" stroke="none" 
	d="
M280.824890,244.450470 
	C279.841461,244.786514 278.540375,244.963196 277.115967,244.832458 
	C278.164185,244.447067 279.335693,244.369080 280.824890,244.450470 
z"/>
<path fill="#E7E8E1" opacity="1.000000" stroke="none" 
	d="
M228.755814,239.799973 
	C227.813187,240.080368 226.593521,240.250046 225.160599,240.146423 
	C226.124496,239.811829 227.301620,239.750549 228.755814,239.799973 
z"/>
<path fill="#E7E8E1" opacity="1.000000" stroke="none" 
	d="
M252.920929,284.542175 
	C253.184006,283.276489 253.625381,281.730743 254.423401,280.091553 
	C254.219772,281.419434 253.659515,282.840820 252.920929,284.542175 
z"/>
<path fill="#E7E8E1" opacity="1.000000" stroke="none" 
	d="
M224.443588,274.320953 
	C224.967407,274.992371 225.481247,275.993744 225.866150,277.328156 
	C225.302673,276.657776 224.868134,275.654327 224.443588,274.320953 
z"/>
<path fill="#E7E8E1" opacity="1.000000" stroke="none" 
	d="
M197.726364,334.145691 
	C197.519730,334.974823 197.038879,335.949463 196.230667,336.944336 
	C196.419586,336.073456 196.935883,335.182343 197.726364,334.145691 
z"/>
<path fill="#E7E8E1" opacity="1.000000" stroke="none" 
	d="
M210.855804,310.560211 
	C210.657349,311.533966 210.231842,312.698151 209.484802,313.931702 
	C209.651749,312.917572 210.140259,311.834106 210.855804,310.560211 
z"/>
<path fill="#E7E8E1" opacity="1.000000" stroke="none" 
	d="
M221.428818,331.012604 
	C221.655609,330.159424 222.163116,329.129364 223.063171,328.067871 
	C222.873657,328.969513 222.291595,329.902618 221.428818,331.012604 
z"/>
<path fill="#E7E8E1" opacity="1.000000" stroke="none" 
	d="
M261.261353,221.556503 
	C260.639679,221.408188 259.895569,220.955597 259.117737,220.138306 
	C259.768951,220.266449 260.453918,220.759338 261.261353,221.556503 
z"/>
<path fill="#E7E8E1" opacity="1.000000" stroke="none" 
	d="
M242.435379,303.311859 
	C242.496918,302.689148 242.839523,301.924255 243.516388,301.079285 
	C243.472580,301.722717 243.094513,302.446198 242.435379,303.311859 
z"/>
<path fill="#E7E8E1" opacity="1.000000" stroke="none" 
	d="
M267.469147,273.898987 
	C267.274384,273.432831 267.285645,272.765076 267.588348,272.048370 
	C267.811584,272.565399 267.743378,273.131409 267.469147,273.898987 
z"/>
<path fill="#AFB2AF" opacity="1.000000" stroke="none" 
	d="
M350.166809,275.889557 
	C349.755737,275.427856 349.594604,274.868195 349.645447,274.166992 
	C350.043884,274.614136 350.230286,275.202881 350.166809,275.889557 
z"/>
<path fill="#E7E8E1" opacity="1.000000" stroke="none" 
	d="
M298.245911,251.368607 
	C298.541931,251.020905 299.093903,250.737686 299.790039,250.634796 
	C299.456726,251.021118 298.979340,251.227112 298.245911,251.368607 
z"/>
<path fill="#E7E8E1" opacity="1.000000" stroke="none" 
	d="
M230.465576,316.377625 
	C230.669113,315.756439 231.165054,314.969086 232.057220,314.167725 
	C231.888290,314.839600 231.323151,315.525543 230.465576,316.377625 
z"/>
<path fill="#E7E8E1" opacity="1.000000" stroke="none" 
	d="
M314.276367,245.924408 
	C314.525360,245.467682 315.067627,244.988510 315.789734,244.714401 
	C315.502960,245.246979 315.036285,245.574463 314.276367,245.924408 
z"/>
<path fill="#D5D8D5" opacity="1.000000" stroke="none" 
	d="
M343.822266,238.165009 
	C344.082947,238.560028 344.231689,239.137863 344.160156,239.867310 
	C343.863342,239.461914 343.786835,238.904877 343.822266,238.165009 
z"/>
<path fill="#E7E8E1" opacity="1.000000" stroke="none" 
	d="
M219.500000,333.484436 
	C219.619888,332.835571 220.024734,332.018250 220.811493,331.165344 
	C220.723923,331.858459 220.254456,332.587219 219.500000,333.484436 
z"/>
<path fill="#E7E8E1" opacity="1.000000" stroke="none" 
	d="
M256.426147,241.135315 
	C256.742432,241.104568 257.210907,241.281647 257.829163,241.664658 
	C257.512085,241.694778 257.045197,241.518951 256.426147,241.135315 
z"/>
<path fill="#E7E8E1" opacity="1.000000" stroke="none" 
	d="
M217.890823,302.577637 
	C217.986099,302.633698 217.877655,302.704132 217.868042,302.731995 
	C217.858429,302.759857 217.795547,302.521576 217.890823,302.577637 
z"/>
<path fill="#D5D7D2" opacity="1.000000" stroke="none" 
	d="
M317.369080,164.116013 
	C317.597321,163.915283 317.729797,163.923065 317.794922,163.916626 
	C317.894409,164.100479 317.928772,164.290787 317.968781,164.771118 
	C317.696564,164.813004 317.418701,164.564865 317.369080,164.116013 
z"/>
<path fill="#C4CCC9" opacity="1.000000" stroke="none" 
	d="
M294.351746,120.782562 
	C294.280457,120.893204 293.997192,120.676796 294.001129,120.582756 
	C294.005066,120.488716 294.267456,120.458809 294.267456,120.458809 
	C294.267456,120.458809 294.423065,120.671921 294.351746,120.782562 
z"/>
<path fill="#E7E8E1" opacity="1.000000" stroke="none" 
	d="
M251.068665,288.692108 
	C250.949982,288.722351 251.069855,288.416718 251.101379,288.341248 
	C251.132919,288.265808 251.187363,288.661865 251.068665,288.692108 
z"/>
<path fill="#E7E8E1" opacity="1.000000" stroke="none" 
	d="
M264.052917,282.681885 
	C263.931366,282.703583 264.063599,282.411469 264.095581,282.338196 
	C264.127594,282.264923 264.174438,282.660156 264.052917,282.681885 
z"/>
<path fill="#E7E8E1" opacity="1.000000" stroke="none" 
	d="
M265.070435,280.697693 
	C264.950439,280.730225 265.072937,280.413330 265.106506,280.335510 
	C265.140076,280.257690 265.190430,280.665192 265.070435,280.697693 
z"/>
<path fill="#E7E8E1" opacity="1.000000" stroke="none" 
	d="
M269.082062,267.802460 
	C268.966553,267.870575 269.053375,267.484131 269.081360,267.389130 
	C269.109314,267.294128 269.292603,267.486115 269.292603,267.486115 
	C269.292603,267.486115 269.197571,267.734344 269.082062,267.802460 
z"/>
<path fill="#E7E8E1" opacity="1.000000" stroke="none" 
	d="
M307.426819,249.154053 
	C307.417023,249.046829 307.568665,248.990021 307.606110,248.975098 
	C307.643555,248.960159 307.436646,249.261261 307.426819,249.154053 
z"/>
<path fill="#E7E8E1" opacity="1.000000" stroke="none" 
	d="
M252.087509,249.791473 
	C251.963242,249.855881 252.056808,249.472397 252.086731,249.378326 
	C252.116669,249.284271 252.320801,249.471802 252.320801,249.471802 
	C252.320801,249.471802 252.211777,249.727081 252.087509,249.791473 
z"/>
<path fill="#E7E8E1" opacity="1.000000" stroke="none" 
	d="
M340.201477,209.607788 
	C340.106415,209.698990 339.991302,209.347076 339.968201,209.257416 
	C340.152191,209.193634 340.269348,209.309906 340.201477,209.607788 
z"/>
<path fill="#E7E8E1" opacity="1.000000" stroke="none" 
	d="
M284.553345,244.949753 
	C284.580505,245.092545 284.162964,245.001038 283.953613,244.952377 
	C283.958527,244.661835 284.219147,244.629593 284.553345,244.949753 
z"/>
<path fill="#E7E8E1" opacity="1.000000" stroke="none" 
	d="
M321.313965,242.263794 
	C321.213409,242.191238 321.499725,242.025024 321.574036,241.988358 
	C321.648315,241.951691 321.414490,242.336349 321.313965,242.263794 
z"/>
<path fill="#E7E8E1" opacity="1.000000" stroke="none" 
	d="
M318.581848,232.832062 
	C318.643341,232.932159 318.367859,233.010880 318.298737,233.029785 
	C318.229614,233.048706 318.520386,232.731964 318.581848,232.832062 
z"/>
<path fill="#E7E8E1" opacity="1.000000" stroke="none" 
	d="
M334.925537,219.275238 
	C335.048920,219.234253 334.934387,219.567459 334.902985,219.649689 
	C334.871582,219.731903 334.691315,219.548645 334.691315,219.548645 
	C334.691315,219.548645 334.802124,219.316223 334.925537,219.275238 
z"/>
<path fill="#E7E8E1" opacity="1.000000" stroke="none" 
	d="
M332.924591,224.286713 
	C333.050018,224.245728 332.910736,224.602585 332.868652,224.688492 
	C332.826569,224.774399 332.677979,224.559509 332.677979,224.559509 
	C332.677979,224.559509 332.799164,224.327698 332.924591,224.286713 
z"/>
<path fill="#D5D8D5" opacity="1.000000" stroke="none" 
	d="
M345.236816,220.685150 
	C345.135498,220.783020 344.916565,220.477814 344.925842,220.381531 
	C345.172272,220.248993 345.306610,220.349670 345.236816,220.685150 
z"/>
<path fill="#E7E8E1" opacity="1.000000" stroke="none" 
	d="
M241.051422,254.123749 
	C242.074509,253.826065 243.145676,253.880356 244.609268,254.068878 
	C243.874084,256.771698 242.561417,256.691620 241.051422,254.123749 
z"/>
<path fill="#E7E8E1" opacity="1.000000" stroke="none" 
	d="
M242.879303,247.954575 
	C242.356201,248.153351 241.821838,248.017151 241.052338,247.732895 
	C241.500824,247.596436 242.184433,247.608017 242.879303,247.954575 
z"/>
<path fill="#E7E8E1" opacity="1.000000" stroke="none" 
	d="
M225.001678,247.099152 
	C224.601105,247.491333 224.071732,247.629395 223.268311,247.699249 
	C223.620483,247.369049 224.246674,247.107056 225.001678,247.099152 
z"/>
<path fill="#E7E8E1" opacity="1.000000" stroke="none" 
	d="
M279.861084,249.327271 
	C279.976044,249.636505 279.886505,249.974960 279.796997,250.313416 
	C279.750183,249.994446 279.703369,249.675491 279.861084,249.327271 
z"/>
<path fill="#E7E8E1" opacity="1.000000" stroke="none" 
	d="
M257.407776,271.746918 
	C257.555725,271.864868 257.576050,272.065338 257.596344,272.265808 
	C257.490906,272.120361 257.385498,271.974915 257.407776,271.746918 
z"/>
</svg>