<svg id="Layer_1" data-name="Layer 1" xmlns="http://www.w3.org/2000/svg" viewBox="0 0 1024 1024"><defs><style>.cls-1{fill:#f1f2f2;}</style></defs><path class="cls-1" d="M957.79,331.11c-57.37-31.68-109,4.77-132.26,58.66C734.41,550.26,532.43,614,368.39,541.65L469.72,326.2C678.52,370.75,745.48,60.78,538.4,14.54,468.28,2.34,398,30.51,362,103Q206.15,435.9,49.69,768.41C12.57,847.34,27.93,908.35,24.52,980.24c0,27.09,31.78,41.81,52.48,24.53C206.81,912.49,230.43,839.51,295.65,696.1,538.88,807,842.06,709.17,973.36,474.88,1008.59,427.89,1013.62,364.79,957.79,331.11Z"/><path class="cls-1" d="M966.8,768.41Q811.94,438.52,657.06,108.62c-.51-1.22-1.38-3.22-2.52-5.63-22.8-48-71.33-82.42-112.45-88.45a221,221,0,0,0-64,0c-78.93,16.21-134.82,89.6-126.92,171.51,9.17,95.78,101.32,162.34,195.61,140.15q87,185,174.07,369.9l72.31,154C829.85,928.4,886,955.49,939.5,1004.77c20.69,17.28,52.47,2.56,52.47-24.53C988.56,908.35,1003.92,847.34,966.8,768.41Z"/></svg>