<svg id="Layer_1" data-name="Layer 1" xmlns="http://www.w3.org/2000/svg" viewBox="0 0 500 500"><defs><style>.cls-1{fill:#e9e8e2;}.cls-2{fill:#e7e7e0;}.cls-3{fill:#e8e8e1;}.cls-4{fill:#d9ddd9;}.cls-5{fill:#f2f5f1;}.cls-6{fill:#111211;}.cls-7{fill:#c3ccc9;}.cls-8{fill:#d5d8d5;}.cls-9{fill:#b0b3b0;}.cls-10{fill:#d5d7d2;}</style></defs><path class="cls-1" d="M191.84,420.49c-7.44,10.63-14.48,21.57-22.42,31.81-9,11.57-21.6,16.2-36,16.38-21.14.25-42.27.62-63.41.83-11.63.12-23.26,0-37.2,0L240,43.4l79.68,170.35c-11.4,1.82-19.25-.77-27.09-9.26-23.75-25.73-32-59.45-48.06-89.09-1.3-2.4-2.48-4.86-4.85-9.53-6.26,12.63-11.64,23.4-17,34.21-12.81,26.08-25.5,52.22-38.56,78.17-1.11,2.19-4.49,4-7.11,4.55-27.37,5.53-37.17,20.63-30.07,47.77,2.8,10.73,2.16,20.22-3,30.47-19.94,39.78-39.1,79.95-58.45,120C82.5,427.4,80,434,76.46,442.14H92.67c12.6,0,25.19-.1,37.79,0,10.37.06,18.22-4.58,23.47-13.17,4.61-7.54,8.46-15.54,13.77-23.57a17,17,0,0,0,3.59-5.26c6.1-11.17,12.21-22.34,19.3-34.06a26.83,26.83,0,0,0,3.18-6.54c3.48-4.19,6.95-8.38,11-12.87a7.88,7.88,0,0,0,.81-.42c14.23-10.69,15.7-25.44,13.48-42.75a22,22,0,0,0-2.36-6.47,10.65,10.65,0,0,1-1.33-4.7c4.25-2.18,7.91-3.68,11.58-5.19,0,0,.49,0,.34.7.78,8.21,5.77,4.08,9.34,4a24.25,24.25,0,0,1,4.77.43,37.27,37.27,0,0,0,7-.33c-.14-.71-.29-1.43-.43-2.15l-4.67.33a29.19,29.19,0,0,1-3.18-4.94c-2.92-9.85-8.73-14.57-17.12-14.8a8,8,0,0,1-3.1-2.84,82.81,82.81,0,0,1,14.11-7.45,56,56,0,0,1,11.2,2.78c2.59,4.41,4.85,4.55,7.34-.11a101.41,101.41,0,0,0-4.2-10.49c-1.2-.59-2.37-.61-4.33-.61-9.24-.13-17.71-.28-26.39-.86a12.83,12.83,0,0,0-4.15,1.11c-3.76.29-6.86.17-9.85.64-.67.11-1,2.33-1.38,4.15,1.58,5.52,10.58,6.81,6.84,14.34-17.3.42-32.19-6.1-46.25-17.1-1.41-4.64-2.48-8.13-3.56-11.62,8.09-1.8,16.18-3.59,25.47-4.89a66.65,66.65,0,0,0,10.51-.45c7,.3,14,.61,22,1.63a24.26,24.26,0,0,0,7.32-.16c6.4-1.08,12.79-2.17,20.53-3.27,3.49-2.26,7.56-4.67,7.39-6.71-.36-4.17,1.08-11.06-7.08-10.49a94.55,94.55,0,0,1,9.18-14.32c4.74,3.65,6.55,1.56,7.74-2.14A67.23,67.23,0,0,1,275.84,204a19.87,19.87,0,0,0,4.36,3.39c.9,4.15,1.79,8.31,2.67,13.81-2.32,8-4.63,14.63-6.94,21.27-.31,0-.62,0-1.51-.72a11.15,11.15,0,0,0-3-1.6c-.42-.14-.85-.27-1.79-1.47a14.64,14.64,0,0,0-4.19-2.85q-.1,6.52-.2,13a30.24,30.24,0,0,1-.67,5.15,8.26,8.26,0,0,0-.55,1.47,4.77,4.77,0,0,1-.5,2c2,3.23,4.37,8,7.43,1.41a148.25,148.25,0,0,1,15.4-5.79c6.2-1.09,14.1,3.69,15.55-6.15a10.09,10.09,0,0,1,4.69-.26,26.92,26.92,0,0,0,7.56-.24,20.47,20.47,0,0,1,4.32.3,9,9,0,0,0,1.59.53,30.31,30.31,0,0,1,7.39-1.35,53.18,53.18,0,0,0,10.46-4.1c12.87-5.07,25.74-10.13,39.41-15.25a7.3,7.3,0,0,0,1.27-.19c8-4.06,19-2.54,24-13.68a4.61,4.61,0,0,0,.8-1.25c.75-2.21,1.49-4.43,2.74-7.34a5.85,5.85,0,0,0,.69-1.27c.5-3.64,1-7.29,2-12a45,45,0,0,1,6.39-5.51.34.34,0,0,1,.16.31,4,4,0,0,0,.19.83,24.49,24.49,0,0,1,1.28,6.92c1.94,9.73,3.05,18.08-4.56,25-.29.26-.05,1.1-.05,1.66,0,0-.11-.14-.67-.14-5.49,1-10,2.51-9.73,8.88-5.6,4.27-11.19,8.55-17.52,13a6.13,6.13,0,0,0-1.21.51,44.71,44.71,0,0,1-8.68,4.28,8.63,8.63,0,0,0-3.75,2.17c-3.21,1.68-6.43,3.35-10.33,5.13a5.06,5.06,0,0,0-.95.2,98.22,98.22,0,0,1-12.38,2.76A8.58,8.58,0,0,0,343.1,258a157.72,157.72,0,0,1-15.77,3.53c-3.44-.5-5.66-1.11-7.79-.86-4.77.57-10.39-4.25-14.28,2.11a48,48,0,0,1-5.7,3c-9.05,2.18-10.55,7.62-4.93,14a46.73,46.73,0,0,1-.9,5.15,10.24,10.24,0,0,0-.5,1.5,24.18,24.18,0,0,1-2,6.68,7.86,7.86,0,0,0-.94,4c-.9,3.16-1.8,6.33-3.23,10.17a5.41,5.41,0,0,0-.74,1.22,7.37,7.37,0,0,1-1,2.19,6.53,6.53,0,0,0-.79,1.2s.11.31-.67.37c-3.61-.49-6.44-1-9.26-1.58a57.43,57.43,0,0,1,.41-8.47,13.09,13.09,0,0,0-4.6-4.78l-1,8.2c-.09.28-.18.55-1.07,1.38a48.29,48.29,0,0,0-3.08,8.52,45.53,45.53,0,0,1-2.34,5.58,4.36,4.36,0,0,0-.74,1.12c-3.78,6.77-7.55,13.53-12.34,20.83a16.14,16.14,0,0,0-2.77,4.49c-5.21,6-10.42,12-16.83,18.23a14,14,0,0,0-3.76,4.26,31.41,31.41,0,0,1-4,7.3c-3.93,1.8-6.82,3.23-10.9,5.26l5.72,4.18a7,7,0,0,1-2.52,2.86,18.6,18.6,0,0,0-3.75,5.56s-.12-.17-.68-.07a20.27,20.27,0,0,0-2.65,4.31,24.75,24.75,0,0,1-4.22,5.44c-4.59,5.39-8.14,10.46-11.68,15.53M311.6,254.67l.24,1.64c.16-.58.31-1.16-.24-1.64m-38.45,38.62.54.75C273.66,293.69,273.62,293.35,273.15,293.29Z"/><path class="cls-2" d="M379.57,418.84c-9.4-19.65-18.71-38.63-27.6-57.8-2.12-4.57-4.69-6.4-9.71-6.21-9.43.37-18.89.16-28.34.15-8.24,0-11.38-3.07-11.55-11.15-.18-8.83,4.19-15.12,11.46-15.25q24.46-.4,48.95.12c2.09.05,5.07,2.44,6,4.5q31,66.12,61.64,132.46a13.93,13.93,0,0,1,.5,3.11H206.58l49.1-85,2.71.71c-1.75,18.76-3.5,37.52-5.31,56.86H390.15C386.55,433.71,383.18,426.58,379.57,418.84Z"/><path class="cls-3" d="M415.13,184.73a45.46,45.46,0,0,1-6.41,5.45c-10.65-26.14-20.83-52.65-31.15-80.25-.21-1.43-.27-1.75.11-2.41a34.81,34.81,0,0,1,4.74-1.15c7.73,16.51,15.79,32.89,23.05,49.61C409.4,165,412,174.68,415.13,184.73Z"/><path class="cls-4" d="M381.9,106c-.91.68-2.35,1-4.33,1.57a1.68,1.68,0,0,1-.78.33c-10-17.08-19.89-34.26-30.18-51.18-4.72-7.76-10.28-15-15.36-23.6a6.21,6.21,0,0,1,2.15-2.69A15.64,15.64,0,0,1,336,33a2.5,2.5,0,0,0,.73,1C353.85,56.41,371.49,78.57,381.9,106Z"/><path class="cls-5" d="M432.33,300.43q-2.55,20.74-5.08,41.48l-3-.05c1-34,4.67-68.14-1.92-102.78a9.61,9.61,0,0,0-.3-4c-.12-.29-.23-.57.41-1.32a18.77,18.77,0,0,1,4.82-.37c1.66,20.67,3.32,41.34,4.6,63.05A10.05,10.05,0,0,0,432.33,300.43Z"/><path class="cls-6" d="M248.43,252.84c1.58,3.22,3.16,6.43,3.51,9.68-3.08-.08-4.92-.17-6.76-.26-3.47-.75-7-1.5-11.75-2.44-5.81-.16-10.35-.48-14.78.09-1.24.16-2.15,2.93-3.21,4.5a1.69,1.69,0,0,1-.95-.36l-12.27-7.93c.48-1.25.8-3.47,1.47-3.58,3-.47,6.09-.35,10.32-.52a32.69,32.69,0,0,0,3.9-.79c8.46.14,16.93.29,26.57.67C246.59,252.37,247.51,252.6,248.43,252.84Z"/><path class="cls-3" d="M412.7,219.7c-.56-.19-.8-1-.51-1.29,7.61-6.88,6.5-15.23,4.55-24.19a56.44,56.44,0,0,1,6.84,10.08,3.75,3.75,0,0,0,.53,1.27A139.83,139.83,0,0,1,425.66,224a16,16,0,0,1-5.41.83C417,224.15,422.09,213,412.7,219.7Z"/><path class="cls-7" d="M333.08,29.89A8.3,8.3,0,0,1,331,32.55c-6.69-6.95-13.08-14.49-19.46-22C322,12.72,325.29,23.52,333.08,29.89Z"/><path class="cls-3" d="M276.43,242.9c1.81-7,4.12-13.68,6.5-20.94,4.63,5.16.77,12.24,3,18.38A64.14,64.14,0,0,1,276.43,242.9Z"/><path class="cls-3" d="M226.6,286.69a71.91,71.91,0,0,1-11.22,5.05c-2.31-3.1-4-6.32-6.93-11.92C215.63,282.43,220.92,284.35,226.6,286.69Z"/><path class="cls-3" d="M245.33,218.64c8.28-1.24,6.84,5.65,7.2,9.82.17,2-3.9,4.45-6.7,6.69.08-2.26,1.42-4.54,1.36-6.79C247.1,225.32,245.92,222.32,245.33,218.64Z"/><path class="cls-3" d="M305.34,263.48c3.81-7,9.43-2.22,14.2-2.79,2.13-.25,4.35.36,7.17.74A168,168,0,0,1,305.34,263.48Z"/><path class="cls-3" d="M223.48,270.78c8-.18,13.78,4.54,16.42,14C234.55,280.66,229.23,275.93,223.48,270.78Z"/><path class="cls-3" d="M274.52,311.45a46.55,46.55,0,0,1,9.23.93,102.87,102.87,0,0,1-7.19,10l-2.17-.78C274.39,318.45,274.39,315.29,274.52,311.45Z"/><path class="cls-3" d="M202.31,256.69c3.79,1.94,7.67,4.44,12.05,7.28-1.86,2.32,2.5,8.62-4.75,7.41C212.89,263.5,203.89,262.21,202.31,256.69Z"/><path class="cls-3" d="M215.91,264.65c.59-1.81,1.5-4.58,2.74-4.74,4.43-.57,9-.25,14.11,0-3.81,2.4-8.27,4.56-13,7.2A13.67,13.67,0,0,1,215.91,264.65Z"/><path class="cls-3" d="M294.82,279.24c-5.81-5.82-4.31-11.26,4.27-13.16A99.25,99.25,0,0,1,294.82,279.24Z"/><path class="cls-3" d="M301.33,246.92c-.88,9.93-8.78,5.15-14.38,6.14A99.77,99.77,0,0,1,301.33,246.92Z"/><path class="cls-3" d="M192.34,420.22a153.8,153.8,0,0,1,10.76-15A157.27,157.27,0,0,1,192.34,420.22Z"/><path class="cls-3" d="M217.75,386.54c-1.9-.76-3.38-1.85-6.13-3.86,4.08-2,7-3.46,10.48-4.92A41.7,41.7,0,0,1,217.75,386.54Z"/><path class="cls-8" d="M420.18,225.5a15.6,15.6,0,0,1,5.51-.78,19.29,19.29,0,0,1,1.92,8.15,14.72,14.72,0,0,1-5.07.48A24.62,24.62,0,0,1,420.18,225.5Z"/><path class="cls-3" d="M270,305.5a41.28,41.28,0,0,1,.43-8,22.77,22.77,0,0,1,4.7,4.06A49.79,49.79,0,0,1,270,305.5Z"/><path class="cls-3" d="M265.43,248.2c-.12-3.64-.06-8,0-12.33a15.44,15.44,0,0,1,3.75,2.35C268.05,241.67,266.83,244.58,265.43,248.2Z"/><path class="cls-3" d="M402.32,228.64c-.83-6.2,3.66-7.67,9.24-8.71A74.52,74.52,0,0,1,402.32,228.64Z"/><path class="cls-3" d="M158.84,242.5a66.25,66.25,0,0,1,3.8,10.89C158.71,251.22,154.44,248.54,158.84,242.5Z"/><path class="cls-3" d="M337.29,241.89a41.48,41.48,0,0,1-9.18,4.1A41.52,41.52,0,0,1,337.29,241.89Z"/><path class="cls-3" d="M236.39,291.33c-3.28.56-8.27,4.69-8.87-3.36A30.34,30.34,0,0,1,236.39,291.33Z"/><path class="cls-3" d="M194.92,236.5a30.4,30.4,0,0,1-9.36,1A30.36,30.36,0,0,1,194.92,236.5Z"/><path class="cls-3" d="M261.82,201.37c-.64,3.84-2.45,5.93-6.56,2.22A17.73,17.73,0,0,1,261.82,201.37Z"/><path class="cls-3" d="M242.94,290.2c2-.2,3.53-.31,5.09-.42.14.72.29,1.44.43,2.15a29.32,29.32,0,0,1-6.39.27A2,2,0,0,1,242.94,290.2Z"/><path class="cls-3" d="M270.25,259c-2.36,6.61-4.72,1.82-6.92-.89A46.73,46.73,0,0,1,270.25,259Z"/><path class="cls-3" d="M313.61,246.24a15.76,15.76,0,0,1-6.38.66A15.61,15.61,0,0,1,313.61,246.24Z"/><path class="cls-3" d="M224.14,238.25a17.63,17.63,0,0,1-6.18.6A17.17,17.17,0,0,1,224.14,238.25Z"/><path class="cls-3" d="M265.66,315.13a32.46,32.46,0,0,1,2.58-7.65A32.46,32.46,0,0,1,265.66,315.13Z"/><path class="cls-3" d="M216.73,297.57a15.33,15.33,0,0,1,2.44,5.16A15.33,15.33,0,0,1,216.73,297.57Z"/><path class="cls-3" d="M170.82,400.36a12.64,12.64,0,0,1-2.57,4.81A12.86,12.86,0,0,1,170.82,400.36Z"/><path class="cls-3" d="M193.38,359.84a18.52,18.52,0,0,1-2.35,5.79A18.28,18.28,0,0,1,193.38,359.84Z"/><path class="cls-3" d="M211.55,395a13.22,13.22,0,0,1,2.81-5.06A13.43,13.43,0,0,1,211.55,395Z"/><path class="cls-3" d="M280,206.9a8,8,0,0,1-3.68-2.43A8,8,0,0,1,280,206.9Z"/><path class="cls-3" d="M247.64,347.38a7.76,7.76,0,0,1,1.86-3.83A7.62,7.62,0,0,1,247.64,347.38Z"/><path class="cls-3" d="M290.66,296.84a4.18,4.18,0,0,1,.2-3.18A4.18,4.18,0,0,1,290.66,296.84Z"/><path class="cls-9" d="M432.76,300.26a3.76,3.76,0,0,1-.9-3A3.77,3.77,0,0,1,432.76,300.26Z"/><path class="cls-3" d="M343.54,258.13a4.3,4.3,0,0,1,2.66-1.26A4.44,4.44,0,0,1,343.54,258.13Z"/><path class="cls-3" d="M227.08,369.83a9.33,9.33,0,0,1,2.73-3.8C229.52,367.19,228.55,368.37,227.08,369.83Z"/><path class="cls-3" d="M371.09,248.77a5,5,0,0,1,2.6-2.08A5,5,0,0,1,371.09,248.77Z"/><path class="cls-8" d="M421.86,235.44a4.56,4.56,0,0,1,.58,2.93A4.45,4.45,0,0,1,421.86,235.44Z"/><path class="cls-3" d="M208.23,399.23a8.54,8.54,0,0,1,2.26-4C210.34,396.43,209.53,397.68,208.23,399.23Z"/><path class="cls-3" d="M271.68,240.54a4.55,4.55,0,0,1,2.41.91A4.43,4.43,0,0,1,271.68,240.54Z"/><path class="cls-3" d="M205.47,346.12c.16.1,0,.22,0,.27S205.31,346,205.47,346.12Z"/><path class="cls-10" d="M376.4,108.2a1.08,1.08,0,0,1,.73-.34,3.58,3.58,0,0,1,.3,1.47C377,109.4,376.49,109,376.4,108.2Z"/><path class="cls-7" d="M336.85,33.74c-.12.19-.61-.18-.6-.34s.46-.21.46-.21S337,33.55,336.85,33.74Z"/><path class="cls-3" d="M262.48,322.26c-.21.05,0-.47,0-.6S262.68,322.21,262.48,322.26Z"/><path class="cls-3" d="M284.79,311.93c-.21,0,0-.46.07-.59S285,311.9,284.79,311.93Z"/><path class="cls-3" d="M286.54,308.52c-.21.06,0-.48.06-.62S286.74,308.47,286.54,308.52Z"/><path class="cls-3" d="M293.43,286.37c-.2.11-.05-.55,0-.71s.36.16.36.16A1.36,1.36,0,0,1,293.43,286.37Z"/><path class="cls-3" d="M359.32,254.32c0-.18.24-.28.31-.3S359.33,254.51,359.32,254.32Z"/><path class="cls-3" d="M264.23,255.42c-.21.11-.05-.55,0-.71s.4.16.4.16S264.44,255.31,264.23,255.42Z"/><path class="cls-3" d="M415.63,186.37c-.16.16-.36-.45-.4-.6C415.55,185.66,415.75,185.86,415.63,186.37Z"/><path class="cls-3" d="M320,247.1c.05.24-.67.09-1,0C319,246.6,319.44,246.55,320,247.1Z"/><path class="cls-3" d="M383.18,242.48c-.17-.12.32-.41.45-.47S383.35,242.61,383.18,242.48Z"/><path class="cls-3" d="M378.49,226.28c.1.17-.37.3-.49.34S378.38,226.1,378.49,226.28Z"/><path class="cls-3" d="M406.57,203c.21-.07,0,.5,0,.65s-.36-.18-.36-.18S406.36,203.05,406.57,203Z"/><path class="cls-3" d="M403.13,211.59c.22-.07,0,.55-.1.69s-.32-.22-.32-.22S402.91,211.66,403.13,211.59Z"/><path class="cls-8" d="M424.29,205.4c-.18.17-.55-.35-.54-.52C424.18,204.66,424.41,204.83,424.29,205.4Z"/><path class="cls-3" d="M245.27,262.86a14.66,14.66,0,0,1,6.11-.09C250.12,267.41,247.86,267.27,245.27,262.86Z"/><path class="cls-3" d="M248.41,252.26a4.4,4.4,0,0,1-3.14-.38A4.45,4.45,0,0,1,248.41,252.26Z"/><path class="cls-3" d="M217.69,250.79a4.48,4.48,0,0,1-3,1A4.57,4.57,0,0,1,217.69,250.79Z"/><path class="cls-3" d="M312,254.62a2.75,2.75,0,0,1-.11,1.69A2.83,2.83,0,0,1,312,254.62Z"/><path class="cls-3" d="M273.37,293.14a1.24,1.24,0,0,1,.32.9A1.23,1.23,0,0,1,273.37,293.14Z"/></svg>